<?xml version="1.0" encoding="UTF-8" standalone="no"?>
<!DOCTYPE svg PUBLIC "-//W3C//DTD SVG 1.1//EN"
 "http://www.w3.org/Graphics/SVG/1.1/DTD/svg11.dtd">
<!-- Generated by graphviz version 2.28.0 (20121128.0145)
 -->
<!-- Title: models_diagram Pages: 1 -->
<svg width="1212pt" height="1388pt"
 viewBox="0.00 0.00 1212.00 1388.00" xmlns="http://www.w3.org/2000/svg" xmlns:xlink="http://www.w3.org/1999/xlink">
<g id="graph1" class="graph" transform="scale(1 1) rotate(0) translate(4 1384)">
<title>models_diagram</title>
<polygon fill="white" stroke="white" points="-4,5 -4,-1384 1209,-1384 1209,5 -4,5"/>
<!-- Affiliation -->
<g id="node1" class="node"><title>Affiliation</title>
<polyline fill="none" stroke="black" points="1073.43,-273.8 1192.57,-273.8 "/>
<path fill="none" stroke="black" d="M1192.57,-273.8C1198.57,-273.8 1204.57,-279.8 1204.57,-285.8"/>
<polyline fill="none" stroke="black" points="1204.57,-285.8 1204.57,-412.2 "/>
<path fill="none" stroke="black" d="M1204.57,-412.2C1204.57,-418.2 1198.57,-424.2 1192.57,-424.2"/>
<polyline fill="none" stroke="black" points="1192.57,-424.2 1073.43,-424.2 "/>
<path fill="none" stroke="black" d="M1073.43,-424.2C1067.43,-424.2 1061.43,-418.2 1061.43,-412.2"/>
<polyline fill="none" stroke="black" points="1061.43,-412.2 1061.43,-285.8 "/>
<path fill="none" stroke="black" d="M1061.43,-285.8C1061.43,-279.8 1067.43,-273.8 1073.43,-273.8"/>
<text text-anchor="middle" x="1133" y="-406.2" font-family="Times,serif" font-size="14.00">Affiliation</text>
<polyline fill="none" stroke="black" points="1061.43,-399.4 1204.57,-399.4 "/>
<text text-anchor="start" x="1069.43" y="-381.4" font-family="Times,serif" font-size="14.00">id :integer</text>
<text text-anchor="start" x="1069.43" y="-364.6" font-family="Times,serif" font-size="14.00">relationship :string</text>
<text text-anchor="start" x="1069.43" y="-347.8" font-family="Times,serif" font-size="14.00">network_id :integer</text>
<text text-anchor="start" x="1069.43" y="-331" font-family="Times,serif" font-size="14.00">user_id :integer</text>
<text text-anchor="start" x="1069.43" y="-314.2" font-family="Times,serif" font-size="14.00">created_at :timestamp</text>
<text text-anchor="start" x="1069.43" y="-297.4" font-family="Times,serif" font-size="14.00">updated_at :timestamp</text>
<text text-anchor="start" x="1069.43" y="-280.6" font-family="Times,serif" font-size="14.00">role :string</text>
</g>
<!-- Comment -->
<g id="node2" class="node"><title>Comment</title>
<polyline fill="none" stroke="black" points="18.4326,-0.4 137.567,-0.4 "/>
<path fill="none" stroke="black" d="M137.567,-0.4C143.567,-0.4 149.567,-6.4 149.567,-12.4"/>
<polyline fill="none" stroke="black" points="149.567,-12.4 149.567,-155.6 "/>
<path fill="none" stroke="black" d="M149.567,-155.6C149.567,-161.6 143.567,-167.6 137.567,-167.6"/>
<polyline fill="none" stroke="black" points="137.567,-167.6 18.4326,-167.6 "/>
<path fill="none" stroke="black" d="M18.4326,-167.6C12.4326,-167.6 6.43262,-161.6 6.43262,-155.6"/>
<polyline fill="none" stroke="black" points="6.43262,-155.6 6.43262,-12.4 "/>
<path fill="none" stroke="black" d="M6.43262,-12.4C6.43262,-6.4 12.4326,-0.4 18.4326,-0.4"/>
<text text-anchor="middle" x="78" y="-149.6" font-family="Times,serif" font-size="14.00">Comment</text>
<polyline fill="none" stroke="black" points="6.43262,-142.8 149.567,-142.8 "/>
<text text-anchor="start" x="14.4326" y="-124.8" font-family="Times,serif" font-size="14.00">id :integer</text>
<text text-anchor="start" x="14.4326" y="-108" font-family="Times,serif" font-size="14.00">name :string</text>
<text text-anchor="start" x="14.4326" y="-91.2" font-family="Times,serif" font-size="14.00">content :text</text>
<text text-anchor="start" x="14.4326" y="-74.4" font-family="Times,serif" font-size="14.00">created_at :timestamp</text>
<text text-anchor="start" x="14.4326" y="-57.6" font-family="Times,serif" font-size="14.00">updated_at :timestamp</text>
<text text-anchor="start" x="14.4326" y="-40.8" font-family="Times,serif" font-size="14.00">post_id :integer</text>
<text text-anchor="start" x="14.4326" y="-24" font-family="Times,serif" font-size="14.00">user_id :integer</text>
<text text-anchor="start" x="14.4326" y="-7.2" font-family="Times,serif" font-size="14.00">network_id :integer</text>
</g>
<!-- Event -->
<g id="node3" class="node"><title>Event</title>
<polyline fill="none" stroke="black" points="11.9463,-854.6 138.054,-854.6 "/>
<path fill="none" stroke="black" d="M138.054,-854.6C144.054,-854.6 150.054,-860.6 150.054,-866.6"/>
<polyline fill="none" stroke="black" points="150.054,-866.6 150.054,-1127.4 "/>
<path fill="none" stroke="black" d="M150.054,-1127.4C150.054,-1133.4 144.054,-1139.4 138.054,-1139.4"/>
<polyline fill="none" stroke="black" points="138.054,-1139.4 11.9463,-1139.4 "/>
<path fill="none" stroke="black" d="M11.9463,-1139.4C5.94629,-1139.4 -0.0537109,-1133.4 -0.0537109,-1127.4"/>
<polyline fill="none" stroke="black" points="-0.0537109,-1127.4 -0.0537109,-866.6 "/>
<path fill="none" stroke="black" d="M-0.0537109,-866.6C-0.0537109,-860.6 5.94629,-854.6 11.9463,-854.6"/>
<text text-anchor="middle" x="75" y="-1121.4" font-family="Times,serif" font-size="14.00">Event</text>
<polyline fill="none" stroke="black" points="-0.0537109,-1114.6 150.054,-1114.6 "/>
<text text-anchor="start" x="7.94629" y="-1096.6" font-family="Times,serif" font-size="14.00">id :integer</text>
<text text-anchor="start" x="7.94629" y="-1079.8" font-family="Times,serif" font-size="14.00">name :string</text>
<text text-anchor="start" x="7.94629" y="-1063" font-family="Times,serif" font-size="14.00">start_at :timestamp</text>
<text text-anchor="start" x="7.94629" y="-1046.2" font-family="Times,serif" font-size="14.00">end_at :timestamp</text>
<text text-anchor="start" x="7.94629" y="-1029.4" font-family="Times,serif" font-size="14.00">created_at :timestamp</text>
<text text-anchor="start" x="7.94629" y="-1012.6" font-family="Times,serif" font-size="14.00">updated_at :timestamp</text>
<text text-anchor="start" x="7.94629" y="-995.8" font-family="Times,serif" font-size="14.00">network_id :integer</text>
<text text-anchor="start" x="7.94629" y="-979" font-family="Times,serif" font-size="14.00">event_type_id :integer</text>
<text text-anchor="start" x="7.94629" y="-962.2" font-family="Times,serif" font-size="14.00">location :string</text>
<text text-anchor="start" x="7.94629" y="-945.4" font-family="Times,serif" font-size="14.00">description :text</text>
<text text-anchor="start" x="7.94629" y="-928.6" font-family="Times,serif" font-size="14.00">created_by_id :integer</text>
<text text-anchor="start" x="7.94629" y="-911.8" font-family="Times,serif" font-size="14.00">updated_by_id :integer</text>
<text text-anchor="start" x="7.94629" y="-895" font-family="Times,serif" font-size="14.00">post_id :integer</text>
<text text-anchor="start" x="7.94629" y="-878.2" font-family="Times,serif" font-size="14.00">canceled :boolean</text>
<text text-anchor="start" x="7.94629" y="-861.4" font-family="Times,serif" font-size="14.00">canceled_by_id :integer</text>
</g>
<!-- Event&#45;&gt;Comment -->
<g id="edge4" class="edge"><title>Event&#45;&gt;Comment</title>
<path fill="none" stroke="#2dac56" d="M67.7898,-843.923C61.5279,-684.772 55.0342,-427.687 66,-206 66.4481,-196.942 67.0837,-187.517 67.8313,-178.102"/>
<polygon fill="#2dac56" stroke="#2dac56" points="67.8036,-844.271 63.7053,-854.442 68.0027,-849.267 68.2017,-854.263 68.2017,-854.263 68.2017,-854.263 68.0027,-849.267 72.6982,-854.084 67.8036,-844.271 67.8036,-844.271"/>
<polygon fill="#2dac56" stroke="#2dac56" points="67.8503,-177.874 73.1673,-168.283 68.2666,-172.891 68.6829,-167.909 68.6829,-167.909 68.6829,-167.909 68.2666,-172.891 64.1985,-167.534 67.8503,-177.874 67.8503,-177.874"/>
</g>
<!-- User -->
<g id="node15" class="node"><title>User</title>
<polyline fill="none" stroke="black" points="343.66,-547 534.34,-547 "/>
<path fill="none" stroke="black" d="M534.34,-547C540.34,-547 546.34,-553 546.34,-559"/>
<polyline fill="none" stroke="black" points="546.34,-559 546.34,-803 "/>
<path fill="none" stroke="black" d="M546.34,-803C546.34,-809 540.34,-815 534.34,-815"/>
<polyline fill="none" stroke="black" points="534.34,-815 343.66,-815 "/>
<path fill="none" stroke="black" d="M343.66,-815C337.66,-815 331.66,-809 331.66,-803"/>
<polyline fill="none" stroke="black" points="331.66,-803 331.66,-559 "/>
<path fill="none" stroke="black" d="M331.66,-559C331.66,-553 337.66,-547 343.66,-547"/>
<text text-anchor="middle" x="439" y="-797" font-family="Times,serif" font-size="14.00">User</text>
<polyline fill="none" stroke="black" points="331.66,-790.2 546.34,-790.2 "/>
<text text-anchor="start" x="339.66" y="-772.2" font-family="Times,serif" font-size="14.00">id :integer</text>
<text text-anchor="start" x="339.66" y="-755.4" font-family="Times,serif" font-size="14.00">email :string</text>
<text text-anchor="start" x="339.66" y="-738.6" font-family="Times,serif" font-size="14.00">password_digest :string</text>
<text text-anchor="start" x="339.66" y="-721.8" font-family="Times,serif" font-size="14.00">created_at :timestamp</text>
<text text-anchor="start" x="339.66" y="-705" font-family="Times,serif" font-size="14.00">updated_at :timestamp</text>
<text text-anchor="start" x="339.66" y="-688.2" font-family="Times,serif" font-size="14.00">auth_token :string</text>
<text text-anchor="start" x="339.66" y="-671.4" font-family="Times,serif" font-size="14.00">password_reset_token :string</text>
<text text-anchor="start" x="339.66" y="-654.6" font-family="Times,serif" font-size="14.00">password_reset_sent_at :timestamp</text>
<text text-anchor="start" x="339.66" y="-637.8" font-family="Times,serif" font-size="14.00">first_name :string</text>
<text text-anchor="start" x="339.66" y="-621" font-family="Times,serif" font-size="14.00">last_name :string</text>
<text text-anchor="start" x="339.66" y="-604.2" font-family="Times,serif" font-size="14.00">network_id :integer</text>
<text text-anchor="start" x="339.66" y="-587.4" font-family="Times,serif" font-size="14.00">avatar :string</text>
<text text-anchor="start" x="339.66" y="-570.6" font-family="Times,serif" font-size="14.00">time_zone :string</text>
<text text-anchor="start" x="339.66" y="-553.8" font-family="Times,serif" font-size="14.00">system_admin :boolean</text>
</g>
<!-- Event&#45;&gt;User -->
<g id="edge2" class="edge"><title>Event&#45;&gt;User</title>
<path fill="none" stroke="#ac7725" d="M158.219,-924.212C207.242,-881.923 269.983,-827.8 323.718,-781.446"/>
<polygon fill="#ac7725" stroke="#ac7725" points="157.993,-924.407 147.482,-927.532 154.207,-927.673 150.421,-930.939 150.421,-930.939 150.421,-930.939 154.207,-927.673 153.36,-934.346 157.993,-924.407 157.993,-924.407"/>
<polygon fill="#ac7725" stroke="#ac7725" points="324.006,-781.198 334.518,-778.073 327.792,-777.932 331.578,-774.666 331.578,-774.666 331.578,-774.666 327.792,-777.932 328.639,-771.259 324.006,-781.198 324.006,-781.198"/>
</g>
<!-- EventType -->
<g id="node4" class="node"><title>EventType</title>
<polyline fill="none" stroke="black" points="44.2017,-1245.8 105.798,-1245.8 "/>
<path fill="none" stroke="black" d="M105.798,-1245.8C111.798,-1245.8 117.798,-1251.8 117.798,-1257.8"/>
<polyline fill="none" stroke="black" points="117.798,-1257.8 117.798,-1300.2 "/>
<path fill="none" stroke="black" d="M117.798,-1300.2C117.798,-1306.2 111.798,-1312.2 105.798,-1312.2"/>
<polyline fill="none" stroke="black" points="105.798,-1312.2 44.2017,-1312.2 "/>
<path fill="none" stroke="black" d="M44.2017,-1312.2C38.2017,-1312.2 32.2017,-1306.2 32.2017,-1300.2"/>
<polyline fill="none" stroke="black" points="32.2017,-1300.2 32.2017,-1257.8 "/>
<path fill="none" stroke="black" d="M32.2017,-1257.8C32.2017,-1251.8 38.2017,-1245.8 44.2017,-1245.8"/>
<text text-anchor="middle" x="75" y="-1294.2" font-family="Times,serif" font-size="14.00">EventType</text>
<polyline fill="none" stroke="black" points="32.2017,-1287.4 117.798,-1287.4 "/>
<text text-anchor="start" x="40.2017" y="-1269.4" font-family="Times,serif" font-size="14.00">id :integer</text>
<text text-anchor="start" x="40.2017" y="-1252.6" font-family="Times,serif" font-size="14.00">name :string</text>
</g>
<!-- EventType&#45;&gt;Event -->
<g id="edge6" class="edge"><title>EventType&#45;&gt;Event</title>
<path fill="none" stroke="#4ef53f" d="M75,-1237.47C75,-1213.77 75,-1182.21 75,-1149.8"/>
<ellipse fill="none" stroke="#4ef53f" cx="75" cy="-1241.61" rx="4" ry="4"/>
<polygon fill="#4ef53f" stroke="#4ef53f" points="75.0001,-1149.72 79.5,-1139.72 75,-1144.72 75,-1139.72 75,-1139.72 75,-1139.72 75,-1144.72 70.5,-1139.72 75.0001,-1149.72 75.0001,-1149.72"/>
</g>
<!-- Folder -->
<g id="node5" class="node"><title>Folder</title>
<polyline fill="none" stroke="black" points="923.433,-614.2 1042.57,-614.2 "/>
<path fill="none" stroke="black" d="M1042.57,-614.2C1048.57,-614.2 1054.57,-620.2 1054.57,-626.2"/>
<polyline fill="none" stroke="black" points="1054.57,-626.2 1054.57,-735.8 "/>
<path fill="none" stroke="black" d="M1054.57,-735.8C1054.57,-741.8 1048.57,-747.8 1042.57,-747.8"/>
<polyline fill="none" stroke="black" points="1042.57,-747.8 923.433,-747.8 "/>
<path fill="none" stroke="black" d="M923.433,-747.8C917.433,-747.8 911.433,-741.8 911.433,-735.8"/>
<polyline fill="none" stroke="black" points="911.433,-735.8 911.433,-626.2 "/>
<path fill="none" stroke="black" d="M911.433,-626.2C911.433,-620.2 917.433,-614.2 923.433,-614.2"/>
<text text-anchor="middle" x="983" y="-729.8" font-family="Times,serif" font-size="14.00">Folder</text>
<polyline fill="none" stroke="black" points="911.433,-723 1054.57,-723 "/>
<text text-anchor="start" x="919.433" y="-705" font-family="Times,serif" font-size="14.00">id :integer</text>
<text text-anchor="start" x="919.433" y="-688.2" font-family="Times,serif" font-size="14.00">parent_id :integer</text>
<text text-anchor="start" x="919.433" y="-671.4" font-family="Times,serif" font-size="14.00">display_name :string</text>
<text text-anchor="start" x="919.433" y="-654.6" font-family="Times,serif" font-size="14.00">description :string</text>
<text text-anchor="start" x="919.433" y="-637.8" font-family="Times,serif" font-size="14.00">created_at :timestamp</text>
<text text-anchor="start" x="919.433" y="-621" font-family="Times,serif" font-size="14.00">updated_at :timestamp</text>
</g>
<!-- Message -->
<g id="node7" class="node"><title>Message</title>
<polyline fill="none" stroke="black" points="912.433,-282.2 1031.57,-282.2 "/>
<path fill="none" stroke="black" d="M1031.57,-282.2C1037.57,-282.2 1043.57,-288.2 1043.57,-294.2"/>
<polyline fill="none" stroke="black" points="1043.57,-294.2 1043.57,-403.8 "/>
<path fill="none" stroke="black" d="M1043.57,-403.8C1043.57,-409.8 1037.57,-415.8 1031.57,-415.8"/>
<polyline fill="none" stroke="black" points="1031.57,-415.8 912.433,-415.8 "/>
<path fill="none" stroke="black" d="M912.433,-415.8C906.433,-415.8 900.433,-409.8 900.433,-403.8"/>
<polyline fill="none" stroke="black" points="900.433,-403.8 900.433,-294.2 "/>
<path fill="none" stroke="black" d="M900.433,-294.2C900.433,-288.2 906.433,-282.2 912.433,-282.2"/>
<text text-anchor="middle" x="972" y="-397.8" font-family="Times,serif" font-size="14.00">Message</text>
<polyline fill="none" stroke="black" points="900.433,-391 1043.57,-391 "/>
<text text-anchor="start" x="908.433" y="-373" font-family="Times,serif" font-size="14.00">id :integer</text>
<text text-anchor="start" x="908.433" y="-356.2" font-family="Times,serif" font-size="14.00">folder_id :integer</text>
<text text-anchor="start" x="908.433" y="-339.4" font-family="Times,serif" font-size="14.00">sender_id :integer</text>
<text text-anchor="start" x="908.433" y="-322.6" font-family="Times,serif" font-size="14.00">body :string</text>
<text text-anchor="start" x="908.433" y="-305.8" font-family="Times,serif" font-size="14.00">created_at :timestamp</text>
<text text-anchor="start" x="908.433" y="-289" font-family="Times,serif" font-size="14.00">updated_at :timestamp</text>
</g>
<!-- Folder&#45;&gt;Message -->
<g id="edge8" class="edge"><title>Folder&#45;&gt;Message</title>
<path fill="none" stroke="#7e960a" d="M980.525,-605.756C978.739,-552.179 976.336,-480.07 974.536,-426.077"/>
<ellipse fill="none" stroke="#7e960a" cx="980.667" cy="-610.015" rx="4" ry="4"/>
<polygon fill="#7e960a" stroke="#7e960a" points="974.529,-425.867 978.693,-415.723 974.362,-420.87 974.196,-415.873 974.196,-415.873 974.196,-415.873 974.362,-420.87 969.698,-416.023 974.529,-425.867 974.529,-425.867"/>
</g>
<!-- Invitation -->
<g id="node6" class="node"><title>Invitation</title>
<polyline fill="none" stroke="black" points="279.433,-248.6 398.567,-248.6 "/>
<path fill="none" stroke="black" d="M398.567,-248.6C404.567,-248.6 410.567,-254.6 410.567,-260.6"/>
<polyline fill="none" stroke="black" points="410.567,-260.6 410.567,-437.4 "/>
<path fill="none" stroke="black" d="M410.567,-437.4C410.567,-443.4 404.567,-449.4 398.567,-449.4"/>
<polyline fill="none" stroke="black" points="398.567,-449.4 279.433,-449.4 "/>
<path fill="none" stroke="black" d="M279.433,-449.4C273.433,-449.4 267.433,-443.4 267.433,-437.4"/>
<polyline fill="none" stroke="black" points="267.433,-437.4 267.433,-260.6 "/>
<path fill="none" stroke="black" d="M267.433,-260.6C267.433,-254.6 273.433,-248.6 279.433,-248.6"/>
<text text-anchor="middle" x="339" y="-431.4" font-family="Times,serif" font-size="14.00">Invitation</text>
<polyline fill="none" stroke="black" points="267.433,-424.6 410.567,-424.6 "/>
<text text-anchor="start" x="275.433" y="-406.6" font-family="Times,serif" font-size="14.00">id :integer</text>
<text text-anchor="start" x="275.433" y="-389.8" font-family="Times,serif" font-size="14.00">first_name :string</text>
<text text-anchor="start" x="275.433" y="-373" font-family="Times,serif" font-size="14.00">last_name :string</text>
<text text-anchor="start" x="275.433" y="-356.2" font-family="Times,serif" font-size="14.00">email :string</text>
<text text-anchor="start" x="275.433" y="-339.4" font-family="Times,serif" font-size="14.00">token :string</text>
<text text-anchor="start" x="275.433" y="-322.6" font-family="Times,serif" font-size="14.00">sent_at :timestamp</text>
<text text-anchor="start" x="275.433" y="-305.8" font-family="Times,serif" font-size="14.00">created_at :timestamp</text>
<text text-anchor="start" x="275.433" y="-289" font-family="Times,serif" font-size="14.00">updated_at :timestamp</text>
<text text-anchor="start" x="275.433" y="-272.2" font-family="Times,serif" font-size="14.00">send_id :integer</text>
<text text-anchor="start" x="275.433" y="-255.4" font-family="Times,serif" font-size="14.00">network_id :integer</text>
</g>
<!-- Recipient -->
<g id="node14" class="node"><title>Recipient</title>
<polyline fill="none" stroke="black" points="612.433,-8.8 731.567,-8.8 "/>
<path fill="none" stroke="black" d="M731.567,-8.8C737.567,-8.8 743.567,-14.8 743.567,-20.8"/>
<polyline fill="none" stroke="black" points="743.567,-20.8 743.567,-147.2 "/>
<path fill="none" stroke="black" d="M743.567,-147.2C743.567,-153.2 737.567,-159.2 731.567,-159.2"/>
<polyline fill="none" stroke="black" points="731.567,-159.2 612.433,-159.2 "/>
<path fill="none" stroke="black" d="M612.433,-159.2C606.433,-159.2 600.433,-153.2 600.433,-147.2"/>
<polyline fill="none" stroke="black" points="600.433,-147.2 600.433,-20.8 "/>
<path fill="none" stroke="black" d="M600.433,-20.8C600.433,-14.8 606.433,-8.8 612.433,-8.8"/>
<text text-anchor="middle" x="672" y="-141.2" font-family="Times,serif" font-size="14.00">Recipient</text>
<polyline fill="none" stroke="black" points="600.433,-134.4 743.567,-134.4 "/>
<text text-anchor="start" x="608.433" y="-116.4" font-family="Times,serif" font-size="14.00">id :integer</text>
<text text-anchor="start" x="608.433" y="-99.6" font-family="Times,serif" font-size="14.00">user_id :integer</text>
<text text-anchor="start" x="608.433" y="-82.8" font-family="Times,serif" font-size="14.00">message_id :integer</text>
<text text-anchor="start" x="608.433" y="-66" font-family="Times,serif" font-size="14.00">is_read :boolean</text>
<text text-anchor="start" x="608.433" y="-49.2" font-family="Times,serif" font-size="14.00">is_deleted :boolean</text>
<text text-anchor="start" x="608.433" y="-32.4" font-family="Times,serif" font-size="14.00">created_at :timestamp</text>
<text text-anchor="start" x="608.433" y="-15.6" font-family="Times,serif" font-size="14.00">updated_at :timestamp</text>
</g>
<!-- Message&#45;&gt;Recipient -->
<g id="edge10" class="edge"><title>Message&#45;&gt;Recipient</title>
<path fill="none" stroke="#4a90d0" d="M940.101,-274.726C927.27,-250.856 910.776,-225.508 891,-206 851.809,-167.339 797.748,-137.301 753.145,-116.825"/>
<ellipse fill="none" stroke="#4a90d0" cx="942.104" cy="-278.538" rx="4.00002" ry="4.00002"/>
<polygon fill="#4a90d0" stroke="#4a90d0" points="752.896,-116.712 745.63,-108.499 748.338,-114.656 743.78,-112.601 743.78,-112.601 743.78,-112.601 748.338,-114.656 741.93,-116.703 752.896,-116.712 752.896,-116.712"/>
</g>
<!-- Author -->
<g id="node22" class="node"><title>Author</title>
<ellipse fill="none" stroke="black" cx="972" cy="-84" rx="38.0929" ry="18"/>
<text text-anchor="middle" x="972" y="-78.4" font-family="Times,serif" font-size="14.00">Author</text>
</g>
<!-- Message&#45;&gt;Author -->
<g id="edge12" class="edge"><title>Message&#45;&gt;Author</title>
<path fill="none" stroke="#8713bf" d="M972,-271.931C972,-218.244 972,-149.47 972,-112.112"/>
<polygon fill="#8713bf" stroke="#8713bf" points="972,-271.973 967.5,-281.973 972,-276.973 972,-281.973 972,-281.973 972,-281.973 972,-276.973 976.5,-281.974 972,-271.973 972,-271.973"/>
<polygon fill="#8713bf" stroke="#8713bf" points="972,-112.012 976.5,-102.012 972,-107.012 972,-102.012 972,-102.012 972,-102.012 972,-107.012 967.5,-102.012 972,-112.012 972,-112.012"/>
</g>
<!-- Network -->
<g id="node8" class="node"><title>Network</title>
<polyline fill="none" stroke="black" points="205.205,-1178.6 336.795,-1178.6 "/>
<path fill="none" stroke="black" d="M336.795,-1178.6C342.795,-1178.6 348.795,-1184.6 348.795,-1190.6"/>
<polyline fill="none" stroke="black" points="348.795,-1190.6 348.795,-1367.4 "/>
<path fill="none" stroke="black" d="M348.795,-1367.4C348.795,-1373.4 342.795,-1379.4 336.795,-1379.4"/>
<polyline fill="none" stroke="black" points="336.795,-1379.4 205.205,-1379.4 "/>
<path fill="none" stroke="black" d="M205.205,-1379.4C199.205,-1379.4 193.205,-1373.4 193.205,-1367.4"/>
<polyline fill="none" stroke="black" points="193.205,-1367.4 193.205,-1190.6 "/>
<path fill="none" stroke="black" d="M193.205,-1190.6C193.205,-1184.6 199.205,-1178.6 205.205,-1178.6"/>
<text text-anchor="middle" x="271" y="-1361.4" font-family="Times,serif" font-size="14.00">Network</text>
<polyline fill="none" stroke="black" points="193.205,-1354.6 348.795,-1354.6 "/>
<text text-anchor="start" x="201.205" y="-1336.6" font-family="Times,serif" font-size="14.00">id :integer</text>
<text text-anchor="start" x="201.205" y="-1319.8" font-family="Times,serif" font-size="14.00">name :string</text>
<text text-anchor="start" x="201.205" y="-1303" font-family="Times,serif" font-size="14.00">network_for_who :string</text>
<text text-anchor="start" x="201.205" y="-1286.2" font-family="Times,serif" font-size="14.00">host_user_id :integer</text>
<text text-anchor="start" x="201.205" y="-1269.4" font-family="Times,serif" font-size="14.00">created_at :timestamp</text>
<text text-anchor="start" x="201.205" y="-1252.6" font-family="Times,serif" font-size="14.00">updated_at :timestamp</text>
<text text-anchor="start" x="201.205" y="-1235.8" font-family="Times,serif" font-size="14.00">avatar :string</text>
<text text-anchor="start" x="201.205" y="-1219" font-family="Times,serif" font-size="14.00">users_count :integer</text>
<text text-anchor="start" x="201.205" y="-1202.2" font-family="Times,serif" font-size="14.00">posts_count :integer</text>
<text text-anchor="start" x="201.205" y="-1185.4" font-family="Times,serif" font-size="14.00">events_count :integer</text>
</g>
<!-- Network&#45;&gt;Affiliation -->
<g id="edge14" class="edge"><title>Network&#45;&gt;Affiliation</title>
<path fill="none" stroke="#1510c4" d="M355.232,-1179.41C355.821,-1178.93 356.41,-1178.46 357,-1178 634.013,-959.813 857.24,-1102.36 1063,-816 1144.11,-703.111 1148.39,-534.788 1142.09,-434.349"/>
<ellipse fill="none" stroke="#1510c4" cx="352.043" cy="-1182.07" rx="4.00002" ry="4.00002"/>
<polygon fill="#1510c4" stroke="#1510c4" points="1142.09,-434.223 1145.9,-423.942 1141.75,-429.234 1141.41,-424.245 1141.41,-424.245 1141.41,-424.245 1141.75,-429.234 1136.92,-424.549 1142.09,-434.223 1142.09,-434.223"/>
</g>
<!-- Network&#45;&gt;Event -->
<g id="edge20" class="edge"><title>Network&#45;&gt;Event</title>
<path fill="none" stroke="#aa146d" d="M187.783,-1190.67C179.411,-1180.6 171.313,-1170.26 164,-1160 161.234,-1156.12 158.49,-1152.15 155.775,-1148.1"/>
<ellipse fill="none" stroke="#aa146d" cx="190.451" cy="-1193.84" rx="4.00002" ry="4.00002"/>
<polygon fill="#aa146d" stroke="#aa146d" points="155.746,-1148.06 153.999,-1137.24 152.994,-1143.89 150.242,-1139.71 150.242,-1139.71 150.242,-1139.71 152.994,-1143.89 146.485,-1142.19 155.746,-1148.06 155.746,-1148.06"/>
</g>
<!-- Post -->
<g id="node11" class="node"><title>Post</title>
<polyline fill="none" stroke="black" points="118.433,-265.4 237.567,-265.4 "/>
<path fill="none" stroke="black" d="M237.567,-265.4C243.567,-265.4 249.567,-271.4 249.567,-277.4"/>
<polyline fill="none" stroke="black" points="249.567,-277.4 249.567,-420.6 "/>
<path fill="none" stroke="black" d="M249.567,-420.6C249.567,-426.6 243.567,-432.6 237.567,-432.6"/>
<polyline fill="none" stroke="black" points="237.567,-432.6 118.433,-432.6 "/>
<path fill="none" stroke="black" d="M118.433,-432.6C112.433,-432.6 106.433,-426.6 106.433,-420.6"/>
<polyline fill="none" stroke="black" points="106.433,-420.6 106.433,-277.4 "/>
<path fill="none" stroke="black" d="M106.433,-277.4C106.433,-271.4 112.433,-265.4 118.433,-265.4"/>
<text text-anchor="middle" x="178" y="-414.6" font-family="Times,serif" font-size="14.00">Post</text>
<polyline fill="none" stroke="black" points="106.433,-407.8 249.567,-407.8 "/>
<text text-anchor="start" x="114.433" y="-389.8" font-family="Times,serif" font-size="14.00">id :integer</text>
<text text-anchor="start" x="114.433" y="-373" font-family="Times,serif" font-size="14.00">name :string</text>
<text text-anchor="start" x="114.433" y="-356.2" font-family="Times,serif" font-size="14.00">content :text</text>
<text text-anchor="start" x="114.433" y="-339.4" font-family="Times,serif" font-size="14.00">created_at :timestamp</text>
<text text-anchor="start" x="114.433" y="-322.6" font-family="Times,serif" font-size="14.00">updated_at :timestamp</text>
<text text-anchor="start" x="114.433" y="-305.8" font-family="Times,serif" font-size="14.00">network_id :integer</text>
<text text-anchor="start" x="114.433" y="-289" font-family="Times,serif" font-size="14.00">user_id :integer</text>
<text text-anchor="start" x="114.433" y="-272.2" font-family="Times,serif" font-size="14.00">photo :string</text>
</g>
<!-- Network&#45;&gt;Post -->
<g id="edge18" class="edge"><title>Network&#45;&gt;Post</title>
<path fill="none" stroke="#a8f76c" d="M260.178,-1170.02C241.756,-986.187 204.617,-615.597 187.293,-442.728"/>
<ellipse fill="none" stroke="#a8f76c" cx="260.604" cy="-1174.27" rx="4" ry="4"/>
<polygon fill="#a8f76c" stroke="#a8f76c" points="187.279,-442.586 190.759,-432.187 186.78,-437.611 186.281,-432.636 186.281,-432.636 186.281,-432.636 186.78,-437.611 181.804,-433.084 187.279,-442.586 187.279,-442.586"/>
</g>
<!-- Network&#45;&gt;User -->
<g id="edge16" class="edge"><title>Network&#45;&gt;User</title>
<path fill="none" stroke="#e803bd" d="M301.784,-1168.79C329.009,-1072.21 368.915,-930.636 398.681,-825.036"/>
<polygon fill="#e803bd" stroke="#e803bd" points="301.738,-1168.95 294.694,-1177.36 300.381,-1173.77 299.025,-1178.58 299.025,-1178.58 299.025,-1178.58 300.381,-1173.77 303.356,-1179.8 301.738,-1168.95 301.738,-1168.95"/>
<polygon fill="#e803bd" stroke="#e803bd" points="398.725,-824.879 405.77,-816.475 400.082,-820.066 401.439,-815.254 401.439,-815.254 401.439,-815.254 400.082,-820.066 397.107,-814.033 398.725,-824.879 398.725,-824.879"/>
</g>
<!-- Notification -->
<g id="node9" class="node"><title>Notification</title>
<polyline fill="none" stroke="black" points="517.008,-240.2 702.992,-240.2 "/>
<path fill="none" stroke="black" d="M702.992,-240.2C708.992,-240.2 714.992,-246.2 714.992,-252.2"/>
<polyline fill="none" stroke="black" points="714.992,-252.2 714.992,-445.8 "/>
<path fill="none" stroke="black" d="M714.992,-445.8C714.992,-451.8 708.992,-457.8 702.992,-457.8"/>
<polyline fill="none" stroke="black" points="702.992,-457.8 517.008,-457.8 "/>
<path fill="none" stroke="black" d="M517.008,-457.8C511.008,-457.8 505.008,-451.8 505.008,-445.8"/>
<polyline fill="none" stroke="black" points="505.008,-445.8 505.008,-252.2 "/>
<path fill="none" stroke="black" d="M505.008,-252.2C505.008,-246.2 511.008,-240.2 517.008,-240.2"/>
<text text-anchor="middle" x="610" y="-439.8" font-family="Times,serif" font-size="14.00">Notification</text>
<polyline fill="none" stroke="black" points="505.008,-433 714.992,-433 "/>
<text text-anchor="start" x="513.008" y="-415" font-family="Times,serif" font-size="14.00">id :integer</text>
<text text-anchor="start" x="513.008" y="-398.2" font-family="Times,serif" font-size="14.00">announcement :boolean</text>
<text text-anchor="start" x="513.008" y="-381.4" font-family="Times,serif" font-size="14.00">post_update :boolean</text>
<text text-anchor="start" x="513.008" y="-364.6" font-family="Times,serif" font-size="14.00">response_post :boolean</text>
<text text-anchor="start" x="513.008" y="-347.8" font-family="Times,serif" font-size="14.00">calendar_task_added :boolean</text>
<text text-anchor="start" x="513.008" y="-331" font-family="Times,serif" font-size="14.00">member_volunteer_task :boolean</text>
<text text-anchor="start" x="513.008" y="-314.2" font-family="Times,serif" font-size="14.00">receive_thanks :boolean</text>
<text text-anchor="start" x="513.008" y="-297.4" font-family="Times,serif" font-size="14.00">member_receives_thanks :boolean</text>
<text text-anchor="start" x="513.008" y="-280.6" font-family="Times,serif" font-size="14.00">user_id :integer</text>
<text text-anchor="start" x="513.008" y="-263.8" font-family="Times,serif" font-size="14.00">created_at :timestamp</text>
<text text-anchor="start" x="513.008" y="-247" font-family="Times,serif" font-size="14.00">updated_at :timestamp</text>
</g>
<!-- PilotSignup -->
<g id="node10" class="node"><title>PilotSignup</title>
<polyline fill="none" stroke="black" points="378.433,-1203.8 497.567,-1203.8 "/>
<path fill="none" stroke="black" d="M497.567,-1203.8C503.567,-1203.8 509.567,-1209.8 509.567,-1215.8"/>
<polyline fill="none" stroke="black" points="509.567,-1215.8 509.567,-1342.2 "/>
<path fill="none" stroke="black" d="M509.567,-1342.2C509.567,-1348.2 503.567,-1354.2 497.567,-1354.2"/>
<polyline fill="none" stroke="black" points="497.567,-1354.2 378.433,-1354.2 "/>
<path fill="none" stroke="black" d="M378.433,-1354.2C372.433,-1354.2 366.433,-1348.2 366.433,-1342.2"/>
<polyline fill="none" stroke="black" points="366.433,-1342.2 366.433,-1215.8 "/>
<path fill="none" stroke="black" d="M366.433,-1215.8C366.433,-1209.8 372.433,-1203.8 378.433,-1203.8"/>
<text text-anchor="middle" x="438" y="-1336.2" font-family="Times,serif" font-size="14.00">PilotSignup</text>
<polyline fill="none" stroke="black" points="366.433,-1329.4 509.567,-1329.4 "/>
<text text-anchor="start" x="374.433" y="-1311.4" font-family="Times,serif" font-size="14.00">id :integer</text>
<text text-anchor="start" x="374.433" y="-1294.6" font-family="Times,serif" font-size="14.00">email :string</text>
<text text-anchor="start" x="374.433" y="-1277.8" font-family="Times,serif" font-size="14.00">first_name :string</text>
<text text-anchor="start" x="374.433" y="-1261" font-family="Times,serif" font-size="14.00">last_name :string</text>
<text text-anchor="start" x="374.433" y="-1244.2" font-family="Times,serif" font-size="14.00">signup_type :string</text>
<text text-anchor="start" x="374.433" y="-1227.4" font-family="Times,serif" font-size="14.00">created_at :timestamp</text>
<text text-anchor="start" x="374.433" y="-1210.6" font-family="Times,serif" font-size="14.00">updated_at :timestamp</text>
</g>
<!-- Post&#45;&gt;Comment -->
<g id="edge22" class="edge"><title>Post&#45;&gt;Comment</title>
<path fill="none" stroke="#b5d0d1" d="M143.564,-257.433C133.725,-231.557 122.993,-203.332 113.114,-177.351"/>
<ellipse fill="none" stroke="#b5d0d1" cx="145.075" cy="-261.407" rx="4.00001" ry="4.00001"/>
<polygon fill="#b5d0d1" stroke="#b5d0d1" points="113.071,-177.236 113.723,-166.29 111.294,-172.563 109.517,-167.889 109.517,-167.889 109.517,-167.889 111.294,-172.563 105.311,-169.488 113.071,-177.236 113.071,-177.236"/>
</g>
<!-- Post&#45;&gt;Event -->
<g id="edge24" class="edge"><title>Post&#45;&gt;Event</title>
<path fill="none" stroke="#82dcf7" d="M163.521,-440.812C146.751,-545.989 118.873,-720.834 98.8811,-846.221"/>
<ellipse fill="none" stroke="#82dcf7" cx="164.179" cy="-436.686" rx="4.00001" ry="4.00001"/>
<ellipse fill="#82dcf7" stroke="#82dcf7" cx="98.2336" cy="-850.282" rx="4.00001" ry="4.00001"/>
</g>
<!-- PostRecipient -->
<g id="node12" class="node"><title>PostRecipient</title>
<polyline fill="none" stroke="black" points="279.433,-25.6 398.567,-25.6 "/>
<path fill="none" stroke="black" d="M398.567,-25.6C404.567,-25.6 410.567,-31.6 410.567,-37.6"/>
<polyline fill="none" stroke="black" points="410.567,-37.6 410.567,-130.4 "/>
<path fill="none" stroke="black" d="M410.567,-130.4C410.567,-136.4 404.567,-142.4 398.567,-142.4"/>
<polyline fill="none" stroke="black" points="398.567,-142.4 279.433,-142.4 "/>
<path fill="none" stroke="black" d="M279.433,-142.4C273.433,-142.4 267.433,-136.4 267.433,-130.4"/>
<polyline fill="none" stroke="black" points="267.433,-130.4 267.433,-37.6 "/>
<path fill="none" stroke="black" d="M267.433,-37.6C267.433,-31.6 273.433,-25.6 279.433,-25.6"/>
<text text-anchor="middle" x="339" y="-124.4" font-family="Times,serif" font-size="14.00">PostRecipient</text>
<polyline fill="none" stroke="black" points="267.433,-117.6 410.567,-117.6 "/>
<text text-anchor="start" x="275.433" y="-99.6" font-family="Times,serif" font-size="14.00">id :integer</text>
<text text-anchor="start" x="275.433" y="-82.8" font-family="Times,serif" font-size="14.00">user_id :integer</text>
<text text-anchor="start" x="275.433" y="-66" font-family="Times,serif" font-size="14.00">post_id :integer</text>
<text text-anchor="start" x="275.433" y="-49.2" font-family="Times,serif" font-size="14.00">created_at :timestamp</text>
<text text-anchor="start" x="275.433" y="-32.4" font-family="Times,serif" font-size="14.00">updated_at :timestamp</text>
</g>
<!-- Post&#45;&gt;PostRecipient -->
<g id="edge26" class="edge"><title>Post&#45;&gt;PostRecipient</title>
<path fill="none" stroke="#a29d52" d="M227.457,-257.77C237.339,-240.448 247.817,-222.554 258,-206 269.098,-187.959 281.608,-168.765 293.418,-151.106"/>
<ellipse fill="none" stroke="#a29d52" cx="225.238" cy="-261.676" rx="4.00002" ry="4.00002"/>
<polygon fill="#a29d52" stroke="#a29d52" points="293.574,-150.874 302.885,-145.081 296.362,-146.723 299.15,-142.572 299.15,-142.572 299.15,-142.572 296.362,-146.723 295.414,-140.063 293.574,-150.874 293.574,-150.874"/>
</g>
<!-- Post&#45;&gt;User -->
<g id="edge28" class="edge"><title>Post&#45;&gt;User</title>
<path fill="none" stroke="#da2495" d="M201.203,-442.473C211.252,-471.568 225.067,-502.682 243.579,-528 265.261,-557.653 294.247,-584.448 323.243,-606.988"/>
<polygon fill="#da2495" stroke="#da2495" points="201.105,-442.18 202.206,-431.27 199.521,-437.438 197.937,-432.695 197.937,-432.695 197.937,-432.695 199.521,-437.438 193.669,-434.121 201.105,-442.18 201.105,-442.18"/>
<polygon fill="#da2495" stroke="#da2495" points="323.469,-607.16 328.683,-616.807 327.442,-610.196 331.415,-613.231 331.415,-613.231 331.415,-613.231 327.442,-610.196 334.147,-609.655 323.469,-607.16 323.469,-607.16"/>
<text text-anchor="middle" x="271.21" y="-513.4" font-family="Times,serif" font-size="14.00">recipients</text>
</g>
<!-- Profile -->
<g id="node13" class="node"><title>Profile</title>
<polyline fill="none" stroke="black" points="745.312,-206.6 870.688,-206.6 "/>
<path fill="none" stroke="black" d="M870.688,-206.6C876.688,-206.6 882.688,-212.6 882.688,-218.6"/>
<polyline fill="none" stroke="black" points="882.688,-218.6 882.688,-479.4 "/>
<path fill="none" stroke="black" d="M882.688,-479.4C882.688,-485.4 876.688,-491.4 870.688,-491.4"/>
<polyline fill="none" stroke="black" points="870.688,-491.4 745.312,-491.4 "/>
<path fill="none" stroke="black" d="M745.312,-491.4C739.312,-491.4 733.312,-485.4 733.312,-479.4"/>
<polyline fill="none" stroke="black" points="733.312,-479.4 733.312,-218.6 "/>
<path fill="none" stroke="black" d="M733.312,-218.6C733.312,-212.6 739.312,-206.6 745.312,-206.6"/>
<text text-anchor="middle" x="808" y="-473.4" font-family="Times,serif" font-size="14.00">Profile</text>
<polyline fill="none" stroke="black" points="733.312,-466.6 882.688,-466.6 "/>
<text text-anchor="start" x="741.312" y="-448.6" font-family="Times,serif" font-size="14.00">id :integer</text>
<text text-anchor="start" x="741.312" y="-431.8" font-family="Times,serif" font-size="14.00">bio :string</text>
<text text-anchor="start" x="741.312" y="-415" font-family="Times,serif" font-size="14.00">location :string</text>
<text text-anchor="start" x="741.312" y="-398.2" font-family="Times,serif" font-size="14.00">significant_other :string</text>
<text text-anchor="start" x="741.312" y="-381.4" font-family="Times,serif" font-size="14.00">kids_name :string</text>
<text text-anchor="start" x="741.312" y="-364.6" font-family="Times,serif" font-size="14.00">birthdate :date</text>
<text text-anchor="start" x="741.312" y="-347.8" font-family="Times,serif" font-size="14.00">expertise :string</text>
<text text-anchor="start" x="741.312" y="-331" font-family="Times,serif" font-size="14.00">can_help_with :string</text>
<text text-anchor="start" x="741.312" y="-314.2" font-family="Times,serif" font-size="14.00">phone_work :string</text>
<text text-anchor="start" x="741.312" y="-297.4" font-family="Times,serif" font-size="14.00">phone_mobile :string</text>
<text text-anchor="start" x="741.312" y="-280.6" font-family="Times,serif" font-size="14.00">user_id :integer</text>
<text text-anchor="start" x="741.312" y="-263.8" font-family="Times,serif" font-size="14.00">created_at :timestamp</text>
<text text-anchor="start" x="741.312" y="-247" font-family="Times,serif" font-size="14.00">updated_at :timestamp</text>
<text text-anchor="start" x="741.312" y="-230.2" font-family="Times,serif" font-size="14.00">phone_home :string</text>
<text text-anchor="start" x="741.312" y="-213.4" font-family="Times,serif" font-size="14.00">phone_work_ext :string</text>
</g>
<!-- User&#45;&gt;Affiliation -->
<g id="edge30" class="edge"><title>User&#45;&gt;Affiliation</title>
<path fill="none" stroke="#e8920c" d="M554.439,-647.047C726.503,-597.579 1032.28,-508.178 1052,-492 1071.19,-476.257 1086.72,-454.699 1098.85,-433.137"/>
<ellipse fill="none" stroke="#e8920c" cx="550.446" cy="-648.194" rx="4.00001" ry="4.00001"/>
<polygon fill="#e8920c" stroke="#e8920c" points="1098.91,-433.031 1107.63,-426.383 1101.29,-428.635 1103.67,-424.239 1103.67,-424.239 1103.67,-424.239 1101.29,-428.635 1099.72,-422.095 1098.91,-433.031 1098.91,-433.031"/>
</g>
<!-- User&#45;&gt;Comment -->
<g id="edge48" class="edge"><title>User&#45;&gt;Comment</title>
<path fill="none" stroke="#dc5acb" d="M323.599,-649.016C245.353,-621.473 147.332,-572.743 97,-492 65.5397,-441.53 67.2108,-281.767 72.0624,-178.061"/>
<ellipse fill="none" stroke="#dc5acb" cx="327.808" cy="-650.472" rx="4.00001" ry="4.00001"/>
<polygon fill="#dc5acb" stroke="#dc5acb" points="72.071,-177.881 77.0513,-168.112 72.3138,-172.887 72.5566,-167.893 72.5566,-167.893 72.5566,-167.893 72.3138,-172.887 68.0619,-167.675 72.071,-177.881 72.071,-177.881"/>
</g>
<!-- User&#45;&gt;Invitation -->
<g id="edge32" class="edge"><title>User&#45;&gt;Invitation</title>
<path fill="none" stroke="#c1ebdc" d="M396.184,-538.706C388.115,-512.08 379.792,-484.613 372.078,-459.157"/>
<ellipse fill="none" stroke="#c1ebdc" cx="397.454" cy="-542.899" rx="4.00001" ry="4.00001"/>
<polygon fill="#c1ebdc" stroke="#c1ebdc" points="372.053,-459.075 373.46,-448.2 370.603,-454.29 369.153,-449.505 369.153,-449.505 369.153,-449.505 370.603,-454.29 364.846,-450.81 372.053,-459.075 372.053,-459.075"/>
</g>
<!-- User&#45;&gt;Message -->
<g id="edge38" class="edge"><title>User&#45;&gt;Message</title>
<path fill="none" stroke="#5ae38a" d="M556.11,-626.269C634.319,-591.246 739.896,-545.608 835,-510 859.483,-500.833 870.7,-508.473 891,-492 912.691,-474.398 929.677,-449.34 942.368,-425.162"/>
<polygon fill="#5ae38a" stroke="#5ae38a" points="555.834,-626.393 544.868,-626.381 551.272,-628.44 546.71,-630.486 546.71,-630.486 546.71,-630.486 551.272,-628.44 548.552,-634.592 555.834,-626.393 555.834,-626.393"/>
<polygon fill="#5ae38a" stroke="#5ae38a" points="942.511,-424.88 951.039,-417.986 944.767,-420.418 947.023,-415.956 947.023,-415.956 947.023,-415.956 944.767,-420.418 943.007,-413.925 942.511,-424.88 942.511,-424.88"/>
</g>
<!-- User&#45;&gt;Message -->
<g id="edge46" class="edge"><title>User&#45;&gt;Message</title>
<path fill="none" stroke="#97671d" d="M554.556,-641.751C633.163,-614.05 738.557,-573.575 827,-528 840.011,-521.295 841.867,-517.255 854.579,-510 870.261,-501.05 877.859,-504.383 891,-492 910.873,-473.274 927.249,-448.567 939.949,-425.02"/>
<ellipse fill="none" stroke="#97671d" cx="550.328" cy="-643.235" rx="4.00001" ry="4.00001"/>
<polygon fill="#97671d" stroke="#97671d" points="939.998,-424.926 948.623,-418.154 942.318,-420.496 944.637,-416.066 944.637,-416.066 944.637,-416.066 942.318,-420.496 940.65,-413.979 939.998,-424.926 939.998,-424.926"/>
<text text-anchor="middle" x="898.71" y="-513.4" font-family="Times,serif" font-size="14.00">latest_messages</text>
</g>
<!-- User&#45;&gt;Notification -->
<g id="edge42" class="edge"><title>User&#45;&gt;Notification</title>
<path fill="none" stroke="#fcd4d9" d="M511.837,-539.438C524.648,-514.714 537.848,-489.241 550.25,-465.307"/>
<ellipse fill="none" stroke="#fcd4d9" cx="509.9" cy="-543.176" rx="4.00002" ry="4.00002"/>
<ellipse fill="#fcd4d9" stroke="#fcd4d9" cx="552.232" cy="-461.483" rx="4.00002" ry="4.00002"/>
</g>
<!-- User&#45;&gt;Post -->
<g id="edge44" class="edge"><title>User&#45;&gt;Post</title>
<path fill="none" stroke="#a149e1" d="M333.337,-541.014C322.051,-529.839 310.212,-519.295 298,-510 282.488,-498.192 272.392,-505.149 258,-492 242.471,-477.812 229.215,-459.891 218.222,-441.601"/>
<ellipse fill="none" stroke="#a149e1" cx="336.37" cy="-544.072" rx="4.00002" ry="4.00002"/>
<polygon fill="#a149e1" stroke="#a149e1" points="218.023,-441.258 216.9,-430.35 215.515,-436.932 213.007,-432.607 213.007,-432.607 213.007,-432.607 215.515,-436.932 209.114,-434.864 218.023,-441.258 218.023,-441.258"/>
</g>
<!-- User&#45;&gt;PostRecipient -->
<g id="edge34" class="edge"><title>User&#45;&gt;PostRecipient</title>
<path fill="none" stroke="#b900a9" d="M452.526,-538.868C457.077,-442.734 453.924,-313.846 419,-206 412.856,-187.026 402.857,-168.212 391.976,-151.274"/>
<ellipse fill="none" stroke="#b900a9" cx="452.324" cy="-542.902" rx="4" ry="4"/>
<polygon fill="#b900a9" stroke="#b900a9" points="391.749,-150.931 389.972,-140.11 388.985,-146.764 386.222,-142.597 386.222,-142.597 386.222,-142.597 388.985,-146.764 382.472,-145.084 391.749,-150.931 391.749,-150.931"/>
</g>
<!-- User&#45;&gt;Profile -->
<g id="edge40" class="edge"><title>User&#45;&gt;Profile</title>
<path fill="none" stroke="#7e6a0d" d="M553.634,-620.134C609.173,-587.363 674.225,-543.039 723,-492 724.628,-490.296 726.24,-488.555 727.833,-486.782"/>
<ellipse fill="none" stroke="#7e6a0d" cx="550.014" cy="-622.253" rx="4.00002" ry="4.00002"/>
<ellipse fill="#7e6a0d" stroke="#7e6a0d" cx="730.557" cy="-483.652" rx="4.00002" ry="4.00002"/>
</g>
<!-- User&#45;&gt;Recipient -->
<g id="edge36" class="edge"><title>User&#45;&gt;Recipient</title>
<path fill="none" stroke="#60660e" d="M461.616,-538.395C462.092,-534.897 462.554,-531.427 463,-528 481.559,-385.341 422.615,-329.735 496,-206 517.971,-168.954 556.238,-140.616 591.49,-120.709"/>
<ellipse fill="none" stroke="#60660e" cx="461.031" cy="-542.641" rx="4.00001" ry="4.00001"/>
<polygon fill="#60660e" stroke="#60660e" points="591.61,-120.643 602.541,-119.774 595.993,-118.237 600.375,-115.83 600.375,-115.83 600.375,-115.83 595.993,-118.237 598.209,-111.886 591.61,-120.643 591.61,-120.643"/>
</g>
</g>
</svg>
